<?xml version="1.0" encoding="utf-8"?>
<!-- Generator: Adobe Illustrator 16.0.0, SVG Export Plug-In . SVG Version: 6.00 Build 0)  -->
<!DOCTYPE svg PUBLIC "-//W3C//DTD SVG 1.1//EN" "http://www.w3.org/Graphics/SVG/1.1/DTD/svg11.dtd">
<svg version="1.1" id="Capa_1" xmlns="http://www.w3.org/2000/svg" xmlns:xlink="http://www.w3.org/1999/xlink" x="0px" y="0px"
	 width="458.089px" height="458.089px" viewBox="0 0 458.089 458.089" enable-background="new 0 0 458.089 458.089"
	 xml:space="preserve">
<g>
	<g>
		<polygon fill="#80FF80" points="228.103,22.179 254.638,72.434 296.49,32.312 305.125,87.776 358.183,61.706 348.072,116.953 
			407.146,107.494 379.269,157.111 438.583,165.19 395.676,204.329 449.415,229.146 395.676,253.965 438.583,293.101 
			379.269,301.181 407.146,350.796 348.072,341.342 358.183,396.584 305.125,370.516 296.49,425.982 254.638,385.857 
			228.103,436.114 201.564,385.857 159.715,425.982 151.078,370.516 98.02,396.584 108.134,341.342 49.058,350.796 76.934,301.181 
			17.627,293.101 60.529,253.965 6.79,229.146 60.529,204.329 17.627,165.19 76.934,157.111 49.058,107.494 108.134,116.953 
			98.02,61.706 151.078,87.776 159.715,32.312 201.564,72.434 		"/>
		<path d="M228.103,442.783l-27.363-51.821l-43.182,41.401l-8.906-57.185l-54.808,26.929l10.435-56.994l-61.092,9.778l28.79-51.241
			l-61.366-8.359l44.355-40.466l-55.602-25.679l55.602-25.678L10.61,163.004l61.366-8.36L43.187,103.4l61.092,9.782L93.844,56.185
			l54.808,26.93l8.906-57.185l43.182,41.398l27.363-51.818l27.363,51.818l43.182-41.398l8.907,57.185l54.805-26.93l-10.432,56.997
			l61.089-9.782l-28.789,51.244l61.373,8.36l-44.361,40.464l55.604,25.678l-55.6,25.679l44.357,40.466l-61.373,8.359l28.789,51.241
			l-61.089-9.778l10.432,56.994l-54.805-26.929l-8.907,57.185l-43.182-41.401L228.103,442.783z M202.39,380.753l25.713,48.695
			l25.712-48.695l40.519,38.847l8.367-53.742l51.307,25.205l-9.791-53.491l57.059,9.134l-26.964-47.989l57.253-7.801l-41.45-37.81
			l51.878-23.96l-51.878-23.957l41.45-37.812l-57.253-7.798l26.964-47.991l-57.059,9.135l9.791-53.496l-51.307,25.211l-8.367-53.745
			L253.815,77.54l-25.712-48.692L202.39,77.54l-40.517-38.847l-8.37,53.745l-51.307-25.211l9.794,53.496l-57.06-9.135l26.961,47.991
			l-57.247,7.798l41.448,37.812l-51.876,23.957l51.876,23.96l-41.448,37.81l57.247,7.801L54.93,346.706l57.06-9.134l-9.794,53.491
			l51.307-25.205l8.37,53.742L202.39,380.753z"/>
	</g>
	<path d="M337.774,202.165c4.48-1.72,8.777-1.586,13.015,0.347c4.212,1.872,7.232,5.099,8.996,9.701
		c1.719,4.48,1.63,8.893-0.256,13.251c-1.849,4.274-5.084,7.295-9.556,9.014l-6.925,2.655l-12.373-32.238L337.774,202.165z
		 M338.69,246.128l13.671-5.246c6.329-2.424,10.918-6.722,13.72-12.799c2.802-6.079,2.972-12.237,0.563-18.503
		c-2.355-6.151-6.604-10.619-12.783-13.311c-6.113-2.723-12.271-2.888-18.422-0.529l-14.027,5.385L338.69,246.128z M328.867,249.899
		l-17.278-45.017l-6.808,2.613l11.911,31.041l-34.542-22.354l-5.55,2.127l17.283,45.014l6.868-2.635l-12.103-31.522l34.964,22.744
		L328.867,249.899z M269.392,221.087l-25.433,9.761l17.283,45.015l25.432-9.759l-2.452-6.39l-18.621,7.147l-5.551-14.449
		l16.655-6.394l-2.449-6.389l-16.654,6.397l-4.379-11.405l18.625-7.153L269.392,221.087z M227.069,237.335l17.28,45.014l6.807-2.611
		l-17.279-45.018L227.069,237.335z M197.723,255.786l7.877-3.024c5.251-2.019,8.705-0.875,10.333,3.361
		c1.629,4.236-0.079,7.285-5.155,9.239l-8.181,3.134L197.723,255.786z M211.004,272.198l0.541-0.207l19.254,15.556l7.643-2.935
		l-19.938-16.254c4.546-3.324,7.191-8.035,4.461-15.143c-3.185-8.303-9.743-10.577-19.651-6.771l-14.807,5.685l17.281,45.014
		l6.807-2.611l-7.677-19.999L211.004,272.198z M181.974,254.638l-23.699,9.098l17.28,45.019l6.808-2.615l-7.768-20.234l15.761-6.049
		l-2.45-6.386l-15.761,6.049l-4.607-12l16.892-6.487L181.974,254.638z M120.26,292.647l11.214,13.16l-11.104,4.261L120.26,292.647z
		 M151.734,317.897l-33.699-38.714l-4.894,1.877l0.085,51.618l7.282-2.798l-0.073-12.503l15.761-6.045l8.078,9.435L151.734,317.897z
		"/>
	<path d="M327.623,126.288l-25.433,9.763l17.283,45.016l25.433-9.762l-2.453-6.388l-18.621,7.147l-5.55-14.448l16.654-6.395
		l-2.448-6.388l-16.655,6.395l-4.378-11.403l18.625-7.155L327.623,126.288z M250.191,156.012l17.279,45.016l6.872-2.637
		l-12.467-32.478l22.756,16.813l5.721-27.747l12.467,32.482l6.807-2.614l-17.283-45.016l-6.807,2.614l-5.514,28.282l-22.963-17.354
		L250.191,156.012z M210.761,196.833c-1.812-4.716-1.732-9.336,0.249-13.791c2.024-4.547,5.344-7.671,10.005-9.458
		c4.717-1.812,9.274-1.709,13.702,0.357c4.459,1.989,7.609,5.368,9.462,10.207c1.812,4.716,1.756,9.391-0.268,13.938
		c-1.962,4.517-5.343,7.665-10.059,9.482c-4.358,1.671-8.795,1.526-13.353-0.353C215.916,205.271,212.663,201.794,210.761,196.833
		 M203.936,199.387c2.771,7.222,7.421,12.017,13.882,14.399c6.468,2.383,12.637,2.407,18.431,0.189
		c6.563-2.523,11.303-6.942,14.186-13.184c2.919-6.328,3.138-12.716,0.637-19.22c-2.474-6.449-6.908-11.045-13.273-13.878
		c-6.357-2.832-12.722-2.99-19.111-0.54c-6.509,2.498-11.189,6.898-14.102,13.22C201.723,186.671,201.479,192.999,203.936,199.387
		 M198.257,211.568c-0.231,1.526-0.674,3.07-1.337,4.553c-2.024,4.541-5.403,7.689-10.12,9.501
		c-4.358,1.671-8.796,1.525-13.354-0.353c-4.583-1.939-7.835-5.417-9.737-10.376c-1.812-4.717-1.732-9.337,0.249-13.798
		c2.024-4.54,5.343-7.665,9.999-9.458c4.717-1.812,9.275-1.714,13.761,0.334c1.508,0.723,2.863,1.574,4.085,2.613l2.942-6.606
		c-1.209-0.833-2.602-1.605-4.006-2.23c-6.358-2.833-12.722-2.991-19.11-0.542c-6.51,2.499-11.191,6.899-14.102,13.221
		c-2.857,6.304-3.101,12.624-0.645,19.012c2.772,7.228,7.561,12.031,14.357,14.565c6.133,2.233,12.163,2.245,17.956,0.023
		c6.564-2.521,11.305-6.941,14.223-13.269c0.625-1.404,1.039-2.456,1.258-3.155l0.273-1.063L198.257,211.568z M143.638,196.913
		l-25.432,9.763l17.281,45.016l25.431-9.763l-2.45-6.389l-18.624,7.155l-5.549-14.449l16.655-6.394l-2.45-6.388l-16.655,6.395
		l-4.376-11.403l18.624-7.148L143.638,196.913z M97.163,236.946l-5.021-13.076l3.167-1.215c5.671-2.182,9.324-1.046,10.996,3.312
		c1.671,4.358-0.249,7.562-5.684,9.645L97.163,236.946z M104.614,256.354l-5.039-13.136l4.596-1.764
		c5.853-2.25,9.622-1.16,11.299,3.198c1.671,4.358-0.286,7.639-5.957,9.823L104.614,256.354z M111.617,260.858
		c10.631-4.079,14.43-10.062,11.403-17.94c-2.272-5.906-6.655-8.404-13.184-7.402c4.061-3.341,5.063-7.694,2.996-13.067
		c-3.044-7.938-9.719-9.968-19.924-6.048l-9.968,3.823l17.281,45.017L111.617,260.858z"/>
</g>
</svg>
